#N canvas 722 239 980 615 12;
#X obj 167 176 moonfx~, f 27;
#X obj 53 136 osc~, f 7;
#X floatatom 41 101 5 0 0 0 - - - 0;
#X floatatom 136 69 5 0 0 0 - - - 0;
#X floatatom 188 70 5 0 0 0 - - - 0;
#X floatatom 802 119 9 0 0 0 - - - 0;
#X floatatom 609 59 5 0 0 0 - - - 0;
#X floatatom 664 58 5 0 0 0 - - - 0;
#X floatatom 728 60 5 0 0 0 - - - 0;
#X obj 156 258 output~;
#X text 138 48 gain;
#X text 182 49 offset;
#X text 802 9 LPF;
#X text 795 37 cutoff;
#X text 645 13 delay;
#X text 591 36 time (ms);
#X text 663 37 feedback;
#X text 733 39 mix;
#X text 136 19 wavefolder;
#X text 14 10 input signal;
#X obj 802 87 mtof;
#X floatatom 802 61 5 0 0 0 - - - 0;
#X obj 41 74 mtof;
#X floatatom 39 45 5 0 0 0 - - - 0;
#X text 24 330 this is a multifx module. the signal path goes from
a wavefolder into a first order low pass filter to finally a delay
with mild compression. the input signal is on the leftmost input.,
f 60;
#X text 25 396 the wavefolder sets the desired gain on the signal \,
from 0 and infinity. at 0 gain \, the signal is silent. as the gain
is increased \, the amount of wavefolding done increases as well. the
offset adds a positive or negative DC offset before the wavefolding
is done.;
#X floatatom 382 119 9 0 0 0 - - - 0;
#X obj 382 87 mtof;
#X floatatom 382 57 5 0 0 0 - - - 0;
#X text 418 8 BPF;
#X floatatom 441 61 5 0 0 0 - - - 0;
#X floatatom 508 118 5 0 0 0 - - - 0;
#X text 442 35 gain;
#X text 501 37 bandwidth;
#X text 258 15 Phase Shifter;
#X text 315 44 Depth;
#X floatatom 245 66 5 0 0 0 - - - 0;
#X floatatom 313 69 5 0 0 0 - - - 0;
#X obj 508 90 mtof;
#X floatatom 506 60 5 0 0 0 - - - 0;
#X text 375 37 center;
#X text 240 45 freq;
#X text 483 330 the third module is a band pass filter that serves
to focus the frequency spectrum being output from the wavefolder. often
times \, wavefolding results in extreme frequency spectrums and this
helps to tame the sound. The gain ranges from 0 to 100 \, and the center
frequency maxes out at 20k. the bandwidth controls how wide the passband
is.;
#X text 19 476 the second module is a phase shifter based off 4 cascaded
all pass filters. the frequency of the phase shifter ranges between
0 and 100 controls how fast the phase cancellations sweep \, and the
depth \, ranging from 0 to 100 \, sets how prominent the phasing effect
is.;
#X text 482 434 the last module is a delay with mild compression and
a low pass filter in the feedback loop. the time ranges between 1ms
and 15 seconds (15000). the feedback ranges between 0 and 120 and controls
the number of repeats that are heard. at values above 100 \, there
is some distortion added. the mix controls the wet/dry mix of the delay
\, between 0 and 100 at 0 \, the signal is fully dry \, and at 100
none of the dry signal is heard. lastly \, the LPF controls high frequency
rolloff of the delays \, and the cutoff maxes out at 20k.;
#X connect 0 0 9 0;
#X connect 0 0 9 1;
#X connect 1 0 0 0;
#X connect 2 0 1 0;
#X connect 3 0 0 1;
#X connect 4 0 0 2;
#X connect 5 0 0 11;
#X connect 6 0 0 8;
#X connect 7 0 0 9;
#X connect 8 0 0 10;
#X connect 20 0 5 0;
#X connect 21 0 20 0;
#X connect 22 0 2 0;
#X connect 23 0 22 0;
#X connect 26 0 0 5;
#X connect 27 0 26 0;
#X connect 28 0 27 0;
#X connect 30 0 0 6;
#X connect 31 0 0 7;
#X connect 36 0 0 3;
#X connect 37 0 0 4;
#X connect 38 0 31 0;
#X connect 39 0 38 0;
